<?xml version="1.0" standalone="no"?>
<!DOCTYPE svg PUBLIC "-//W3C//DTD SVG 1.0//EN" "http://www.w3.org/TR/2001/REC-SVG-20010904/DTD/svg10.dtd">
<svg xmlns="http://www.w3.org/2000/svg" xmlns:xlink="http://www.w3.org/1999/xlink" id="body_1" width="1467" height="1467">

<g transform="matrix(2.934 0 0 2.934 0 0)">
	<g transform="matrix(0.1 0 -0 -0.1 0 500)">
        <path d="M2860 3632C 2860 3628 2898 3587 2945 3540L2945 3540L3030 3455L3030 2863L3030 2270L3190 2270L3350 2270L3350 2955L3350 3640L3105 3640C 2970 3640 2860 3637 2860 3632z" stroke="none" fill="#000000" fill-rule="nonzero" />
        <path d="M2365 3220L2545 3040L2627 3122L2710 3205L2710 3302L2710 3400L2448 3400L2185 3400L2365 3220z" stroke="none" fill="#000000" fill-rule="nonzero" />
        <path d="M1623 3062L1730 2955L1730 2612L1730 2270L1895 2270L2060 2270L2060 2720L2060 3170L1788 3170L1515 3170L1623 3062z" stroke="none" fill="#000000" fill-rule="nonzero" />
        <path d="M2380 2545L2380 2270L2545 2270L2710 2270L2710 2545C 2710 2696 2707 2820 2702 2820C 2698 2820 2661 2786 2620 2745L2620 2745L2545 2670L2470 2745C 2429 2786 2391 2820 2387 2820C 2383 2820 2380 2696 2380 2545z" stroke="none" fill="#000000" fill-rule="nonzero" />
        <path d="M1270 1860L1270 1700L1375 1700L1480 1700L1480 1730L1480 1760L1410 1760L1340 1760L1340 1795L1340 1830L1400 1830L1460 1830L1460 1860L1460 1890L1400 1890L1340 1890L1340 1925L1340 1960L1405 1960L1470 1960L1470 1990L1470 2020L1370 2020L1270 2020L1270 1860z" stroke="none" fill="#000000" fill-rule="nonzero" />
        <path d="M1680 1860L1680 1700L1715 1700L1750 1700L1750 1797L1750 1895L1791 1837C 1821 1795 1838 1780 1855 1780C 1872 1780 1889 1795 1919 1837L1919 1837L1960 1895L1960 1797L1960 1700L1995 1700L2030 1700L2030 1860L2030 2020L2001 2020C 1975 2020 1964 2009 1915 1940C 1884 1896 1857 1860 1855 1860C 1853 1860 1826 1896 1795 1940C 1746 2009 1735 2020 1709 2020L1709 2020L1680 2020L1680 1860z" stroke="none" fill="#000000" fill-rule="nonzero" />
        <path d="M2120 1860L2120 1700L2225 1700L2330 1700L2330 1730L2330 1760L2260 1760L2190 1760L2190 1795L2190 1830L2255 1830L2320 1830L2320 1860L2320 1890L2255 1890L2190 1890L2190 1925L2190 1960L2260 1960L2330 1960L2330 1990L2330 2020L2225 2020L2120 2020L2120 1860z" stroke="none" fill="#000000" fill-rule="nonzero" />
        <path d="M2410 1860L2410 1700L2445 1700L2479 1700L2482 1798L2485 1895L2555 1798C 2619 1710 2628 1701 2658 1700L2658 1700L2690 1700L2690 1860L2690 2020L2655 2020L2621 2020L2618 1923L2615 1825L2545 1922C 2481 2010 2472 2019 2443 2020L2443 2020L2410 2020L2410 1860z" stroke="none" fill="#000000" fill-rule="nonzero" />
        <path d="M2757 2013C 2753 2010 2750 1994 2750 1978C 2750 1951 2751 1950 2805 1950L2805 1950L2860 1950L2860 1825L2860 1700L2895 1700L2930 1700L2930 1825L2930 1950L2980 1950L3030 1950L3030 1985L3030 2020L2897 2020C 2823 2020 2760 2017 2757 2013z" stroke="none" fill="#000000" fill-rule="nonzero" />
        <path d="M3162 2003C 3107 1976 3085 1935 3085 1858C 3085 1783 3103 1749 3158 1717C 3201 1692 3289 1691 3331 1716C 3442 1781 3441 1945 3329 2002C 3286 2024 3206 2025 3162 2003zM3290 1945C 3326 1926 3340 1902 3340 1856C 3340 1781 3258 1738 3193 1779C 3133 1817 3140 1918 3204 1946C 3244 1963 3255 1963 3290 1945z" stroke="none" fill="#000000" fill-rule="nonzero" />
        <path d="M3490 1860L3490 1700L3525 1700L3560 1700L3560 1751C 3560 1800 3561 1801 3587 1798C 3607 1796 3621 1783 3640 1750C 3664 1709 3670 1705 3709 1702L3709 1702L3752 1699L3729 1737C 3717 1758 3702 1782 3697 1791C 3690 1802 3694 1813 3714 1833C 3735 1854 3740 1869 3740 1908C 3740 1992 3697 2020 3569 2020L3569 2020L3490 2020L3490 1860zM3644 1950C 3664 1943 3670 1933 3670 1912C 3670 1873 3653 1860 3603 1860L3603 1860L3560 1860L3560 1910C 3560 1959 3561 1960 3589 1960C 3605 1960 3630 1956 3644 1950z" stroke="none" fill="#000000" fill-rule="nonzero" />
	</g>
</g>
</svg>